<svg xmlns="http://www.w3.org/2000/svg" xmlns:xlink="http://www.w3.org/1999/xlink" width="1640" zoomAndPan="magnify" viewBox="0 0 1230 693.000001" height="924" preserveAspectRatio="xMidYMid meet" version="1.0"><defs><g/><clipPath id="d4a8922c08"><path d="M 257.082031 384.144531 L 406.742188 384.144531 L 406.742188 519.402344 L 257.082031 519.402344 Z M 257.082031 384.144531 " clip-rule="nonzero"/></clipPath><clipPath id="e2cdb87f41"><path d="M 122.359375 440 L 267.429688 440 L 267.429688 572.3125 L 122.359375 572.3125 Z M 122.359375 440 " clip-rule="nonzero"/></clipPath><clipPath id="052ace80f5"><path d="M 358.074219 185.394531 L 406.742188 185.394531 L 406.742188 222 L 358.074219 222 Z M 358.074219 185.394531 " clip-rule="nonzero"/></clipPath><clipPath id="8632926529"><path d="M 51.765625 367 L 86 367 L 86 402 L 51.765625 402 Z M 51.765625 367 " clip-rule="nonzero"/></clipPath><clipPath id="1015368a5c"><path d="M 164 482.378906 L 229.558594 482.378906 L 229.558594 572.3125 L 164 572.3125 Z M 164 482.378906 " clip-rule="nonzero"/></clipPath></defs><path fill="#ef9640" d="M 369.933594 227.707031 C 368.574219 228.085938 367.214844 228.460938 365.851562 228.835938 C 367.214844 228.59375 368.574219 228.203125 369.933594 227.707031 " fill-opacity="1" fill-rule="nonzero"/><path fill="#ef9640" d="M 394.046875 189.183594 C 389.75 189.84375 385.175781 192.195312 380.882812 192.910156 C 374.230469 194.015625 367.464844 193.828125 361.339844 191.097656 C 359.886719 196.285156 354.828125 201.160156 349.542969 203.140625 C 354.046875 206.808594 356.308594 210.0625 357.414062 217.515625 C 358.019531 221.585938 357 227.238281 355.746094 231.660156 C 359.105469 230.683594 362.476562 229.761719 365.851562 228.835938 C 367.214844 228.460938 368.574219 228.085938 369.933594 227.707031 C 374.726562 226.378906 379.503906 224.992188 384.203125 223.386719 C 388.644531 221.867188 396.527344 220.207031 396.941406 214.003906 C 397.203125 210.066406 403.429688 204.65625 403.355469 199.320312 C 403.289062 194.082031 399.664062 188.316406 394.046875 189.183594 " fill-opacity="1" fill-rule="nonzero"/><path stroke-linecap="round" transform="matrix(0.0235735, 0, 0, -0.0235582, 51.790871, 572.314019)" fill="none" stroke-linejoin="round" d="M 14518.661103 16263.115573 C 14336.385639 16235.093269 14142.345122 16135.274173 13960.235363 16104.930494 C 13678.039804 16058.00557 13391.038801 16065.964568 13131.213412 16181.867472 C 13069.571164 15961.668536 12854.983232 15754.734596 12630.784411 15670.667683 C 12821.842238 15514.96979 12917.785414 15376.848018 12964.67992 15060.47786 C 12990.36419 14887.701285 12947.115194 14647.770667 12893.923899 14460.070971 C 13036.430171 14501.524084 13179.433558 14540.655823 13322.602649 14579.953374 C 13380.433683 14595.871369 13438.099012 14611.789365 13495.76434 14627.873173 C 13699.084335 14684.249406 13901.74151 14743.112827 14101.084586 14811.261744 C 14289.491133 14875.762788 14623.883757 14946.23308 14641.448484 15209.543254 C 14652.550717 15376.682205 14916.684435 15606.332451 14913.53604 15832.832261 C 14910.719056 16055.186759 14756.944846 16299.925938 14518.661103 16263.115573 Z M 14518.661103 16263.115573 " stroke="#ef9640" stroke-width="140.462006" stroke-opacity="1" stroke-miterlimit="10"/><path fill="#f57941" d="M 381.265625 459.46875 C 381.558594 464.011719 382.792969 469.058594 385.488281 472.933594 C 377.363281 473.683594 369.171875 473.359375 361.027344 473.121094 C 353.285156 472.902344 345.632812 472.429688 338.449219 469.238281 C 327.164062 464.214844 315.109375 463.207031 303.105469 460.941406 C 306.683594 457.695312 309.921875 454.089844 312.703125 450.089844 C 320.925781 453.382812 329.429688 455.917969 337.757812 458.914062 C 337.792969 458.921875 337.816406 458.941406 337.847656 458.949219 C 337.898438 458.964844 337.953125 458.980469 338.003906 458.988281 C 338.863281 459.210938 339.546875 458.851562 339.945312 458.265625 C 348.257812 449.324219 355.640625 440.386719 362.066406 430.179688 C 362.539062 433.730469 362.621094 437.621094 364.886719 440.050781 C 366.480469 441.753906 369.261719 441.980469 371.425781 442.164062 C 376.28125 442.59375 381.265625 442.269531 386.160156 441.710938 C 383.292969 447.246094 380.867188 453.171875 381.265625 459.46875 " fill-opacity="1" fill-rule="nonzero"/><g clip-path="url(#d4a8922c08)"><path stroke-linecap="butt" transform="matrix(0.0206949, 0, 0, -0.0206815, 51.790871, 572.314019)" fill="none" stroke-linejoin="miter" d="M 15920.600413 5456.350581 C 15934.757001 5236.686696 15994.403426 4992.657686 16124.644037 4805.291758 C 15732.034659 4769.027385 15336.216454 4784.704171 14942.663303 4796.225665 C 14568.551866 4806.802773 14198.781783 4829.656884 13851.662242 4983.969346 C 13306.350466 5226.865095 12723.854051 5275.595346 12144.0002 5385.143973 C 12316.710576 5542.100713 12473.188063 5716.434132 12607.581274 5909.844121 C 13004.909515 5750.620858 13415.828081 5628.039722 13818.252694 5483.171107 C 13819.951484 5482.793353 13821.084011 5481.848968 13822.594047 5481.471214 C 13825.047856 5480.715707 13827.690419 5479.960199 13830.144228 5479.582445 C 13871.67022 5468.816459 13904.702259 5486.193138 13923.955219 5514.524679 C 14325.624813 5946.864002 14682.370835 6379.014448 14992.872002 6872.549901 C 15015.711298 6700.860759 15019.675142 6512.739324 15129.152758 6395.257865 C 15206.164597 6312.907518 15340.557808 6301.952655 15445.127805 6293.075439 C 15679.74966 6272.298975 15920.600413 6287.975762 16157.109813 6314.985165 C 16018.564003 6047.346536 15901.347453 5760.820213 15920.600413 5456.350581 Z M 15920.600413 5456.350581 " stroke="#f57941" stroke-width="157.184006" stroke-opacity="1" stroke-miterlimit="10"/></g><path fill="#ffffff" d="M 354.195312 219.144531 C 354.511719 224.425781 352.347656 229.40625 349.707031 233.851562 C 344.714844 238.671875 338.742188 242.121094 333.296875 246.351562 C 328.554688 250.027344 322.292969 255.292969 320.574219 261.3125 C 319.050781 266.664062 321.121094 272.585938 322.867188 277.609375 C 325.140625 284.109375 327.621094 290.539062 330 296.992188 C 334.722656 309.800781 337.839844 322.949219 341.863281 335.960938 C 346.8125 351.953125 354.25 369.8125 350.828125 386.746094 C 347.609375 402.683594 337.019531 415.65625 325.140625 426.179688 C 318.722656 431.859375 315.078125 438.320312 310.589844 445.480469 C 310.484375 445.644531 310.378906 445.816406 310.273438 445.976562 C 305.945312 452.707031 300.171875 458.425781 293.652344 463.027344 C 279.742188 472.8125 263.1875 477.484375 246.613281 480.34375 C 237.359375 481.941406 228.007812 483.425781 218.589844 483.140625 C 214.628906 483.027344 210.675781 482.71875 206.722656 482.433594 C 201.671875 482.070312 196.625 481.734375 191.542969 481.855469 C 190.160156 481.890625 188.777344 481.929688 187.394531 481.980469 C 168.707031 482.589844 150.320312 483.953125 132.101562 478.273438 C 115.730469 473.171875 107.421875 468.796875 94.175781 448.113281 C 93.117188 446.460938 91.484375 443.980469 89.316406 442.019531 C 82.414062 438.152344 75.898438 433.605469 71.042969 427.226562 C 64.996094 419.285156 59.246094 409.421875 61.042969 399.207031 C 63.195312 400.554688 65.734375 401.398438 68.644531 401.546875 C 71.425781 401.675781 71.417969 397.359375 68.644531 397.230469 C 62.75 396.9375 59.050781 392.628906 57.347656 387.316406 C 56.496094 384.632812 53.671875 370.03125 60.195312 372.972656 C 61.832031 373.703125 63.488281 376.222656 65.019531 377.367188 C 66.765625 378.683594 68.628906 379.824219 70.613281 380.75 C 74.792969 382.707031 79.234375 383.683594 83.835938 383.84375 C 83.949219 383.84375 84.054688 383.84375 84.164062 383.835938 C 84.164062 383.835938 84.164062 383.828125 84.171875 383.835938 C 85.578125 385.390625 88.113281 381.953125 86.1875 379.394531 C 85.828125 378.921875 85.488281 378.441406 85.164062 377.945312 C 83.925781 376.0625 82.804688 373.957031 82.390625 371.71875 C 82.070312 370.011719 81.875 367.496094 84.78125 367.25 C 85.675781 367.167969 87.796875 368.183594 88.667969 368.421875 C 103.671875 372.53125 119.847656 370.273438 133.972656 364.171875 C 149.359375 357.53125 161.695312 345.964844 175.332031 336.546875 C 189.734375 326.589844 206.105469 319.976562 223.476562 317.519531 C 231.308594 316.417969 238.714844 317.398438 246.523438 317.125 C 253.152344 316.886719 258.699219 314.335938 262.683594 308.921875 C 272.328125 295.824219 266.375 279.382812 259.445312 266.5625 C 255.371094 259.015625 250.710938 251.660156 248.378906 243.328125 C 245.953125 234.65625 245.832031 225.292969 246.238281 216.355469 C 247.011719 199.515625 253.257812 184.613281 267.164062 174.566406 C 295.488281 154.105469 334.890625 163.773438 357.398438 188.148438 C 357.203125 193.445312 350.503906 199.320312 345.144531 199.726562 C 344.785156 199.761719 344.425781 199.761719 344.085938 199.734375 C 341.851562 199.589844 341.277344 202.691406 342.996094 203.757812 C 348.609375 207.253906 353.765625 212.152344 354.195312 219.144531 " fill-opacity="1" fill-rule="nonzero"/><path stroke-linecap="round" transform="matrix(0.0256741, 0, 0, -0.0256574, 51.790871, 572.314019)" fill="none" stroke-linejoin="round" d="M 11778.753136 13764.966129 C 11791.077105 13559.128915 11706.787243 13364.862432 11603.935353 13191.758208 C 11409.338361 13003.73383 11176.856575 12869.452452 10964.76259 12704.569536 C 10780.055202 12561.305617 10536.162333 12356.07739 10469.369464 12121.465595 C 10409.72754 11912.887945 10490.518004 11681.930065 10558.528055 11486.293365 C 10646.925907 11232.955255 10743.539738 10982.357583 10836.349875 10730.846431 C 11020.448672 10231.630289 11141.710441 9719.168705 11298.42264 9212.035748 C 11491.041711 8588.586495 11780.883205 7892.667927 11647.601762 7232.527277 C 11522.232003 6611.361721 11109.75941 6105.903474 10646.925907 5695.599265 C 10396.947128 5474.232912 10255.14541 5222.417268 10080.327627 4943.349507 C 10076.219638 4937.107402 10071.9595 4930.256311 10067.851511 4924.014207 C 9899.423934 4661.845803 9674.549536 4438.804739 9420.462767 4259.458409 C 8878.816722 3878.081028 8233.862343 3695.994262 7588.299373 3584.549853 C 7227.861316 3522.433297 6863.619565 3464.427396 6496.791301 3475.541388 C 6342.513467 3479.956535 6188.539928 3491.984005 6034.718537 3503.097997 C 5837.991476 3517.256918 5641.264415 3530.350113 5443.320172 3525.630473 C 5389.459862 3524.260255 5335.599553 3522.73779 5281.739244 3520.758586 C 4553.864333 3497.008139 3837.7048 3443.874124 3128.087621 3665.240477 C 2490.436334 3864.074353 2166.818037 4034.590388 1650.884963 4840.735393 C 1609.652919 4905.135646 1546.2073 5001.964394 1461.613143 5078.392117 C 1192.768041 5229.116112 938.985567 5406.178745 749.865895 5654.797214 C 514.341153 5964.314267 290.379642 6348.736578 360.367614 6747.013317 C 444.201033 6694.488288 543.097081 6661.450806 656.447166 6655.665441 C 764.776376 6650.641307 764.47208 6818.873646 656.447166 6824.050025 C 426.856188 6835.316263 282.772254 7003.244108 216.435828 7210.45154 C 183.267615 7314.892612 73.26478 7884.142125 327.351549 7769.500541 C 391.101463 7740.878206 455.612116 7642.831486 515.25404 7598.071027 C 583.264091 7546.76397 655.838575 7502.46025 733.12964 7466.377839 C 895.92775 7389.950116 1068.919759 7351.888501 1248.149827 7345.646397 C 1252.562113 7345.646397 1256.82225 7345.646397 1260.778092 7345.95089 C 1260.778092 7345.95089 1260.778092 7346.255382 1261.234535 7345.95089 C 1316.007731 7285.509045 1414.751631 7419.48593 1339.742782 7519.207361 C 1325.745188 7537.629182 1312.508332 7556.203251 1299.880068 7575.690797 C 1251.649226 7649.073591 1207.982817 7731.134433 1191.855154 7818.219408 C 1179.379037 7884.751111 1171.923797 7982.950077 1284.969587 7992.541604 C 1319.811425 7995.586534 1402.427662 7956.002454 1436.356614 7946.867666 C 2020.756182 7786.552144 2650.80008 7874.550598 3200.9664 8112.511815 C 3800.27645 8371.330796 4280.759094 8821.980318 4812.059092 9189.198779 C 5373.027904 9577.122758 6010.67919 9835.028261 6687.128156 9930.639038 C 6992.184427 9973.724786 7280.808738 9935.510925 7584.952122 9946.168177 C 7842.994732 9955.455211 8059.04456 10054.719903 8214.235281 10265.733496 C 8589.888114 10776.368122 8358.014919 11417.173472 8088.256931 11916.694106 C 7929.566811 12210.986513 7748.054527 12497.666597 7657.070163 12822.25605 C 7562.738548 13160.24319 7558.021967 13525.177955 7573.845335 13873.670101 C 7603.818445 14530.004589 7847.102722 15110.824834 8388.748768 15502.402728 C 9492.124365 16300.021931 11026.838878 15923.059697 11903.514304 14973.041788 C 11895.906916 14766.595588 11634.973498 14537.616912 11426.226763 14521.631034 C 11412.229169 14520.565309 11398.231574 14520.565309 11384.994718 14521.326541 C 11297.966196 14527.111907 11275.752623 14406.075971 11342.545492 14364.664934 C 11561.029683 14228.404352 11761.864734 14037.335045 11778.753136 13764.966129 Z M 11778.753136 13764.966129 " stroke="#ffffff" stroke-width="126.702003" stroke-opacity="1" stroke-miterlimit="10"/><path fill="#f57941" d="M 221.386719 545.929688 C 219.523438 546.085938 217.675781 546.289062 215.832031 546.550781 C 212.757812 546.988281 208.910156 547.152344 206.457031 549.289062 C 204.210938 551.246094 203.933594 554.246094 203.460938 557.015625 C 202.933594 560.105469 202.398438 563.195312 201.867188 566.289062 C 195.988281 561.753906 190.296875 556.992188 184.773438 552.019531 C 184.132812 551.441406 182.9375 551.09375 182.15625 551.679688 C 177.421875 555.277344 173.039062 559.1875 169.003906 563.492188 C 166.605469 545.582031 171.445312 527.464844 181.113281 512.226562 C 181.171875 512.164062 181.21875 512.089844 181.246094 512.015625 C 181.253906 512.007812 181.261719 512.007812 181.261719 512 C 181.292969 511.953125 181.328125 511.894531 181.34375 511.847656 C 181.511719 511.546875 181.59375 511.261719 181.601562 510.984375 C 183.796875 502.664062 186.019531 494.242188 189.085938 486.207031 C 191.441406 486.140625 193.800781 486.109375 196.160156 486.140625 C 198.640625 486.171875 201.121094 486.304688 203.59375 486.472656 C 200.835938 492.210938 197.589844 497.917969 196.21875 504.109375 C 194.941406 509.863281 196.785156 514.855469 199.558594 519.859375 C 205.152344 529.953125 212.457031 538.761719 221.386719 545.929688 " fill-opacity="1" fill-rule="nonzero"/><g clip-path="url(#e2cdb87f41)"><path stroke-linecap="butt" transform="matrix(0.0206949, 0, 0, -0.0206815, 51.790871, 572.314019)" fill="none" stroke-linejoin="miter" d="M 8195.06712 1275.748321 C 8105.031219 1268.193243 8015.750337 1258.371642 7926.658208 1245.716887 C 7778.10841 1224.56267 7592.185219 1216.629838 7473.647387 1113.31415 C 7365.113545 1018.686801 7351.711974 873.629309 7328.872679 739.715556 C 7303.39082 590.313894 7277.531453 440.912232 7251.860839 291.321693 C 6967.785303 510.607824 6692.769984 740.848818 6425.871109 981.289167 C 6394.915369 1009.242954 6337.156489 1026.053002 6299.405588 997.721461 C 6070.635123 823.765796 5858.852564 634.699976 5663.869156 426.557585 C 5547.973888 1292.558369 5781.840724 2168.569631 6249.008134 2905.378587 C 6251.839451 2908.400618 6254.104505 2911.98928 6255.425787 2915.577942 C 6255.803296 2915.955695 6256.180805 2915.955695 6256.180805 2916.333449 C 6257.690841 2918.599973 6259.389632 2921.433127 6260.14465 2923.69965 C 6268.261094 2938.243175 6272.224938 2952.031192 6272.602447 2965.441455 C 6378.682481 3367.749344 6486.083797 3774.968033 6634.256086 4163.487905 C 6748.075055 4166.698813 6862.082779 4168.209829 6976.090502 4166.698813 C 7095.949615 4165.187798 7215.808728 4158.765981 7335.290332 4150.644273 C 7202.029649 3873.184043 7045.174652 3597.234829 6978.921819 3297.864875 C 6917.199095 3019.649137 7006.291223 2778.264404 7140.306925 2536.31304 C 7410.603381 2048.255019 7763.574313 1622.337512 8195.06712 1275.748321 Z M 8195.06712 1275.748321 " stroke="#f57941" stroke-width="157.184006" stroke-opacity="1" stroke-miterlimit="10"/></g><path fill="#ffffff" d="M 58.644531 371.347656 C 57.074219 371.347656 57.070312 373.785156 58.644531 373.785156 C 60.210938 373.785156 60.214844 371.347656 58.644531 371.347656 " fill-opacity="1" fill-rule="nonzero"/><path fill="#f3e2bc" d="M 137.980469 479.324219 C 120.917969 471.71875 108.015625 456.4375 103.382812 438.328125 C 102.300781 434.097656 102.453125 429.722656 101.527344 425.523438 C 100.691406 421.742188 96.101562 420.484375 93.5 418.140625 C 86.339844 411.691406 83.902344 401.808594 87.636719 393.289062 C 90.359375 388.820312 88.699219 384.429688 87.34375 384.308594 C 87.160156 384.289062 79.164062 380.964844 74.730469 380.519531 C 69.492188 377.660156 65.128906 373.367188 59.8125 370.113281 C 58.710938 369.4375 53.761719 373.378906 54.152344 376.617188 C 53.648438 381.105469 54.925781 386.339844 56.703125 389.753906 C 57.566406 391.410156 58.667969 392.898438 59.929688 394.226562 C 58.128906 403.324219 60.433594 412.515625 65.144531 420.621094 C 65.78125 421.898438 67.777344 424.964844 68.121094 425.175781 C 73.109375 432.011719 79.765625 437.796875 86.878906 441.683594 C 91.171875 444.894531 94.40625 451.339844 95.855469 453.539062 C 97.332031 456.574219 99.171875 459.445312 101.371094 462.082031 C 108.789062 470.96875 125.328125 479.03125 136.710938 482.28125 C 139.707031 483.136719 140.84375 480.601562 137.980469 479.324219 " fill-opacity="1" fill-rule="nonzero"/><path fill="#f3e2bc" d="M 353.835938 371.25 C 353.152344 368.1875 348.449219 369.484375 349.132812 372.546875 C 351.128906 381.527344 347.960938 390.113281 342.789062 397.347656 C 342.628906 397.507812 342.480469 397.6875 342.351562 397.914062 C 342.324219 397.96875 342.292969 398.019531 342.265625 398.070312 C 340.191406 400.863281 337.828125 403.445312 335.359375 405.757812 C 326.683594 413.886719 316 419.539062 306.652344 426.828125 C 301.847656 430.574219 297.515625 434.730469 293.777344 439.542969 C 289.667969 444.839844 286.222656 450.648438 281.761719 455.671875 C 274.15625 464.226562 264.152344 470.253906 253.445312 474.125 C 241.066406 478.601562 227.9375 480.476562 214.832031 481.039062 C 213.820312 481.082031 213.136719 481.625 212.777344 482.335938 C 212.175781 482.296875 211.578125 482.277344 210.972656 482.230469 C 209.40625 482.109375 209.414062 484.546875 210.972656 484.671875 C 211.542969 484.714844 212.109375 484.734375 212.679688 484.765625 C 212.746094 484.898438 212.847656 485.015625 212.980469 485.105469 C 213.367188 485.617188 213.980469 485.953125 214.832031 485.914062 C 215.621094 485.882812 216.414062 485.828125 217.207031 485.78125 C 223.964844 486.414062 230.6875 485.675781 237.425781 484.589844 C 239.277344 484.289062 241.128906 483.984375 242.980469 483.660156 C 243.234375 483.753906 243.511719 483.816406 243.824219 483.804688 C 247.542969 483.636719 251.097656 482.757812 254.527344 481.460938 C 255.695312 481.132812 256.855469 480.769531 258.007812 480.398438 C 259.5 479.984375 260.984375 479.554688 262.457031 479.070312 C 263.839844 478.617188 265.210938 478.125 266.566406 477.613281 C 267.054688 477.699219 267.585938 477.652344 268.152344 477.363281 C 268.722656 477.074219 269.269531 476.761719 269.808594 476.433594 C 271.921875 475.730469 274.019531 474.980469 276.082031 474.136719 C 281.105469 472.082031 286.363281 469.363281 291.28125 466.023438 C 291.625 465.832031 291.964844 465.636719 292.296875 465.429688 C 295.476562 463.523438 298.191406 461.082031 300.648438 458.367188 C 303.722656 455.304688 306.40625 451.925781 308.453125 448.238281 C 313.714844 441.042969 319.347656 434.464844 325.71875 428.144531 C 336.460938 417.480469 348.042969 405.960938 351.796875 391.125 C 354.375 384.917969 355.375 378.183594 353.835938 371.25 " fill-opacity="1" fill-rule="nonzero"/><path fill="#f3e2bc" d="M 249.75 418.890625 C 242.257812 423.328125 228.957031 426.589844 220.761719 429.617188 C 205.675781 435.1875 177.09375 445.140625 167.003906 432.878906 C 172.125 431.929688 173.542969 429.597656 175.859375 428.46875 C 176.449219 428.183594 176.574219 427.644531 176.417969 427.167969 C 184.6875 416.71875 144.257812 443.148438 126.511719 421.394531 C 148.132812 414.601562 145.5625 409.695312 143.257812 410.195312 C 110.410156 417.300781 92.785156 401.5 96.863281 391.257812 C 97.34375 390.054688 90.664062 383.570312 89.546875 388.820312 C 88.488281 392.464844 87.558594 399.542969 91.171875 405.074219 C 93.613281 409.949219 96.863281 414.828125 104.183594 417.265625 C 104.066406 417.394531 110.902344 420.742188 111.503906 422.140625 C 116.382812 433.519531 128.433594 445.300781 152.976562 440.019531 C 153.089844 441.21875 162.734375 450.585938 176.5625 450.585938 C 196.890625 451.398438 219.992188 439.726562 236.738281 430.265625 C 237.515625 429.828125 254.644531 415.605469 249.75 418.890625 " fill-opacity="1" fill-rule="nonzero"/><path fill="#f3e2bc" d="M 353.007812 227.515625 C 348.90625 234.5 342.589844 236.667969 335.226562 237.675781 C 329.449219 238.46875 323.089844 245.058594 322.132812 246.246094 C 319.03125 250.109375 317.226562 255 317.382812 259.980469 C 317.492188 263.386719 318.3125 268.351562 322.253906 269.15625 C 323.101562 269.332031 322.890625 264.527344 322.738281 262.949219 C 323.398438 259.796875 326.910156 254.4375 327.210938 254.328125 C 327.601562 254.1875 330.191406 250.933594 331.355469 249.644531 C 334.679688 246.972656 339.019531 245.453125 342.601562 243.144531 C 345.25 241.4375 347.640625 239.433594 349.800781 237.203125 C 350.246094 236.972656 354.695312 230.390625 354.28125 230.042969 C 354.570312 229.632812 353.804688 226.160156 353.007812 227.515625 " fill-opacity="1" fill-rule="nonzero"/><path fill="#f3e2bc" d="M 244.058594 407.511719 C 239.140625 410.789062 228.722656 414.605469 227.316406 414.605469 C 225.472656 414.976562 221.289062 414.015625 222.519531 408.761719 C 222.746094 406.007812 226.980469 401.011719 227.792969 397.761719 C 228.175781 396.234375 223.488281 399.136719 222.890625 399.535156 C 221.34375 400.566406 219.789062 401.609375 218.21875 402.628906 C 212.308594 406.15625 205.816406 408.628906 198.964844 409.699219 C 196.914062 410.019531 194.75 410.351562 192.664062 410.164062 C 188.910156 409.824219 185.933594 407.191406 187.132812 403.449219 C 188.582031 398.929688 194.453125 393.695312 199.332031 391.257812 C 200.359375 390.742188 205.839844 387.59375 206.648438 386.382812 C 208.277344 383.945312 204.085938 384.035156 202.671875 384.699219 C 199.34375 386.253906 189.417969 389.789062 188.261719 390.210938 C 184.042969 391.484375 179.75 392.503906 175.386719 393.222656 C 173.015625 393.613281 166.800781 394.507812 165.175781 393.695312 C 163.15625 390.78125 165.988281 382.316406 182.007812 374.816406 C 187.945312 370.941406 187.097656 368.390625 185.683594 369.046875 C 180.429688 371.496094 149.722656 381.507812 150.34375 373.152344 C 150.539062 370.941406 158.734375 362.339844 160.296875 361.191406 C 161.546875 360.265625 156.683594 361.878906 155.417969 362.8125 C 154.539062 363.460938 148.097656 368.503906 151.351562 366.0625 C 153.03125 364.804688 144.84375 370.941406 143.335938 374.480469 C 142.40625 378.257812 144.03125 380.695312 149.796875 381.863281 C 152.683594 382.449219 158.757812 381.539062 158.773438 381.535156 C 161.109375 381.507812 164.289062 381.667969 165.175781 381.507812 C 163.203125 383.410156 155.417969 391.257812 154.605469 394.507812 C 153.890625 397.359375 158.910156 399.808594 161.472656 400.257812 C 167.203125 401.261719 172.988281 400.722656 178.382812 398.871094 C 181.085938 398.753906 183.523438 398.269531 185.824219 397.394531 C 182.464844 400.070312 178.839844 405.464844 179.054688 409.808594 C 179.28125 414.414062 183.402344 415.34375 187.132812 415.640625 C 188.324219 415.734375 196.042969 416.207031 198.421875 415.210938 C 205.246094 413.539062 211.585938 410.6875 217.363281 406.664062 C 217.324219 407.558594 213.371094 416.742188 217.222656 419.703125 C 221.378906 422.894531 227.289062 421.136719 231.433594 418.378906 C 237.859375 415.835938 247.3125 410.761719 251.378906 405.074219 C 252.3125 403.765625 246.5 405.886719 244.058594 407.511719 " fill-opacity="1" fill-rule="nonzero"/><path fill="#0e0f0e" d="M 316.347656 208.871094 C 316.347656 212.839844 313.132812 216.054688 309.164062 216.054688 C 305.195312 216.054688 301.976562 212.839844 301.976562 208.871094 C 301.976562 204.90625 305.195312 201.691406 309.164062 201.691406 C 313.132812 201.691406 316.347656 204.90625 316.347656 208.871094 " fill-opacity="1" fill-rule="nonzero"/><path stroke-linecap="butt" transform="matrix(0.0227519, 0, 0, -0.0227372, 51.790871, 572.314019)" fill="none" stroke-linejoin="miter" d="M 11627.706426 15984.169261 C 11627.706426 15809.792237 11486.406662 15668.229017 11311.970987 15668.229017 C 11137.535313 15668.229017 10996.06386 15809.792237 10996.06386 15984.169261 C 10996.06386 16158.546286 11137.535313 16299.937706 11311.970987 16299.937706 C 11486.406662 16299.937706 11627.706426 16158.546286 11627.706426 15984.169261 Z M 11627.706426 15984.169261 " stroke="#0e0f0e" stroke-width="63.264" stroke-opacity="1" stroke-miterlimit="10"/><path fill="#0e0f0e" d="M 361.839844 186.644531 C 351.484375 174.640625 337.691406 165.832031 322.335938 161.769531 C 307.621094 157.875 291.75 158.046875 277.585938 163.910156 C 264.09375 169.503906 252.332031 179.660156 246.574219 193.269531 C 243.015625 201.683594 241.953125 210.882812 241.820312 219.945312 C 241.679688 229.289062 242.105469 238.925781 245.273438 247.808594 C 248.324219 256.359375 253.347656 263.949219 257.4375 272 C 261.277344 279.554688 264.734375 288.460938 263.132812 297.082031 C 261.8125 304.1875 257.210938 311.214844 249.679688 312.527344 C 245.878906 313.191406 241.898438 312.714844 238.078125 312.472656 C 233.976562 312.21875 229.96875 312.417969 225.890625 312.890625 C 208.191406 314.9375 191.074219 321.015625 176.164062 330.789062 C 161.542969 340.371094 148.78125 352.921875 132.644531 360.078125 C 124.828125 363.546875 116.300781 365.703125 107.746094 366.117188 C 103.511719 366.320312 99.230469 366.140625 95.046875 365.417969 C 92.933594 365.054688 90.839844 364.574219 88.785156 363.964844 C 86.835938 363.390625 84.886719 362.558594 82.816406 362.792969 C 77.929688 363.351562 77.4375 369.171875 78.25 372.984375 C 79.121094 377.0625 81.582031 380.78125 84.289062 383.878906 C 89.238281 389.550781 96.214844 393.542969 103.574219 395.082031 C 107.222656 395.84375 110.960938 396.050781 114.660156 395.589844 C 115.816406 395.445312 116.820312 394.699219 116.820312 393.429688 C 116.820312 392.375 115.824219 391.128906 114.660156 391.273438 C 107.480469 392.167969 100.257812 390.496094 94.136719 386.648438 C 91.164062 384.777344 88.476562 382.390625 86.328125 379.609375 C 84.007812 376.597656 81.519531 372.414062 82.339844 368.449219 C 82.460938 367.882812 82.621094 367.253906 83.222656 367.054688 C 84.03125 366.792969 85.285156 367.386719 86.039062 367.632812 C 88.011719 368.257812 90 368.804688 92.027344 369.226562 C 96.171875 370.085938 100.417969 370.511719 104.648438 370.507812 C 113.066406 370.503906 121.503906 368.882812 129.402344 366.003906 C 145.644531 360.082031 158.507812 348.632812 172.324219 338.667969 C 179.304688 333.636719 186.636719 329.183594 194.523438 325.710938 C 202.386719 322.25 210.703125 319.765625 219.152344 318.21875 C 223.324219 317.457031 227.546875 316.921875 231.777344 316.679688 C 235.5 316.464844 239.214844 316.921875 242.929688 317.082031 C 246.6875 317.246094 250.652344 317.15625 254.191406 315.746094 C 257.71875 314.34375 260.570312 311.785156 262.804688 308.753906 C 267.617188 302.226562 268.578125 293.886719 267.136719 286.082031 C 265.53125 277.382812 261.117188 269.519531 256.859375 261.882812 C 252.515625 254.085938 248.527344 246.300781 247.085938 237.394531 C 246.34375 232.824219 246.167969 228.167969 246.128906 223.546875 C 246.089844 219.085938 246.21875 214.617188 246.71875 210.179688 C 247.613281 202.21875 249.96875 194.507812 254.378906 187.777344 C 258.167969 181.992188 263.273438 177.082031 269.035156 173.273438 C 274.953125 169.371094 281.527344 166.566406 288.429688 164.949219 C 295.539062 163.28125 302.847656 163.09375 310.09375 163.863281 C 325.042969 165.445312 339.417969 171.707031 350.742188 181.582031 C 353.617188 184.085938 356.296875 186.808594 358.789062 189.695312 C 360.601562 191.804688 363.648438 188.738281 361.839844 186.644531 " fill-opacity="1" fill-rule="nonzero"/><g clip-path="url(#052ace80f5)"><path fill="#0e0f0e" d="M 359.21875 190.035156 C 365.75 193.886719 373.570312 194.125 380.882812 192.910156 C 384.675781 192.28125 388.363281 191.1875 392.109375 190.351562 C 394.707031 189.769531 397.566406 189.269531 399.46875 191.390625 C 403.042969 195.375 403.582031 201.75 400.222656 205.984375 C 398.296875 208.40625 395.515625 210.367188 392.871094 211.914062 C 390.28125 213.433594 387.519531 214.566406 384.632812 215.394531 C 377.546875 217.417969 370.109375 217.617188 362.785156 217.621094 C 360.011719 217.621094 360.003906 221.9375 362.785156 221.9375 C 369.890625 221.933594 377.09375 221.703125 384.019531 220.019531 C 390.773438 218.375 397.027344 215.148438 402.054688 210.324219 C 407.03125 205.554688 408.070312 198.125 405.046875 192.003906 C 403.433594 188.742188 400.886719 186.085938 397.15625 185.632812 C 393.628906 185.203125 390.03125 186.414062 386.652344 187.253906 C 378.414062 189.300781 369.113281 190.855469 361.402344 186.308594 C 359 184.898438 356.828125 188.625 359.21875 190.035156 " fill-opacity="1" fill-rule="nonzero"/></g><path fill="#0e0f0e" d="M 349.875 233.695312 C 344.769531 238.753906 338.496094 242.277344 332.863281 246.683594 C 329.769531 249.105469 326.925781 251.824219 324.464844 254.894531 C 322.386719 257.484375 320.617188 259.941406 320.199219 263.300781 C 319.402344 269.726562 322.390625 276.441406 324.582031 282.3125 C 326.804688 288.261719 329.003906 294.21875 331.167969 300.183594 C 333.238281 305.878906 335.128906 311.632812 336.796875 317.453125 C 337.945312 321.460938 339 325.488281 339.992188 329.539062 C 341.089844 334.011719 342.617188 338.386719 343.941406 342.796875 C 346.3125 350.671875 348.90625 358.585938 350.515625 366.660156 C 352.164062 374.917969 352.109375 383.207031 349.6875 391.300781 C 347.453125 398.765625 343.558594 405.652344 338.855469 411.832031 C 336.476562 414.953125 333.84375 417.890625 331.074219 420.667969 C 328.144531 423.601562 324.925781 426.207031 321.941406 429.078125 C 315.75 435.023438 312.746094 443.082031 307.601562 449.808594 C 302.945312 455.894531 297.015625 460.984375 290.5625 465.089844 C 275.84375 474.453125 258.628906 478.550781 241.570312 481.160156 C 237.035156 481.855469 232.464844 482.582031 227.890625 482.953125 C 223.347656 483.320312 218.789062 483.21875 214.246094 482.9375 C 209.785156 482.664062 205.339844 482.230469 200.878906 481.992188 C 196.308594 481.746094 191.753906 481.824219 187.183594 482.003906 C 177.660156 482.378906 168.128906 483.101562 158.59375 482.734375 C 150.152344 482.414062 141.757812 481.113281 133.648438 478.742188 C 126.226562 476.574219 119.074219 473.433594 112.761719 468.9375 C 106.523438 464.492188 101.152344 458.476562 97.449219 451.769531 C 95.609375 448.4375 94.3125 444.886719 93.523438 441.160156 C 92.945312 438.445312 88.785156 439.59375 89.359375 442.308594 C 92.675781 457.953125 105.082031 470.800781 119.105469 477.730469 C 134.71875 485.445312 152.339844 487.539062 169.5625 487.074219 C 179.1875 486.8125 188.835938 485.851562 198.46875 486.199219 C 207.535156 486.527344 216.5625 487.859375 225.652344 487.414062 C 230.386719 487.183594 235.101562 486.433594 239.789062 485.757812 C 244.425781 485.085938 249.050781 484.332031 253.644531 483.414062 C 262.578125 481.621094 271.378906 479.171875 279.773438 475.597656 C 294.554688 469.304688 307.570312 459.296875 315.730469 445.304688 C 317.894531 441.597656 319.886719 437.703125 322.742188 434.460938 C 325.585938 431.230469 329.042969 428.597656 332.15625 425.640625 C 337.96875 420.121094 343.207031 413.894531 347.335938 407.007812 C 351.421875 400.207031 354.425781 392.660156 355.519531 384.777344 C 356.777344 375.71875 355.261719 366.761719 352.882812 358.015625 C 350.695312 349.96875 348.246094 341.984375 345.777344 334.023438 C 343.34375 326.183594 341.617188 318.140625 339.160156 310.296875 C 337.492188 304.976562 335.605469 299.738281 333.671875 294.511719 C 331.125 287.613281 328.347656 280.75 326.121094 273.742188 C 325.242188 270.972656 324.394531 268.082031 324.394531 265.152344 C 324.394531 263.917969 324.503906 263 324.953125 261.808594 C 325.375 260.695312 326.511719 259.222656 327.371094 258.128906 C 332.089844 252.15625 338.222656 248.09375 344.363281 243.757812 C 347.382812 241.625 350.300781 239.351562 352.929688 236.746094 C 354.910156 234.789062 351.855469 231.738281 349.875 233.695312 " fill-opacity="1" fill-rule="nonzero"/><path fill="#0e0f0e" d="M 357.453125 187.84375 C 357.964844 190.785156 355.257812 194.085938 353.160156 195.6875 C 351.859375 196.679688 350.417969 197.574219 348.996094 198.375 C 347.753906 199.074219 345.9375 200.003906 344.660156 199.820312 C 343.59375 199.664062 342.546875 199.992188 342.113281 201.066406 C 341.710938 202.066406 342.058594 203.195312 342.996094 203.761719 C 345.566406 205.320312 347.957031 207.113281 349.964844 209.363281 C 351.488281 211.074219 352.746094 213.167969 353.410156 215.167969 C 354.125 217.308594 354.320312 218.960938 354.195312 221.25 C 354.128906 222.46875 354.042969 223.035156 353.773438 224.242188 C 353.535156 225.324219 353.21875 226.386719 352.851562 227.429688 C 352.417969 228.648438 352.085938 229.414062 351.507812 230.589844 C 350.910156 231.800781 350.246094 232.976562 349.539062 234.128906 C 348.085938 236.507812 351.816406 238.675781 353.269531 236.308594 C 355.929688 231.960938 357.972656 227.175781 358.453125 222.058594 C 358.957031 216.707031 357.230469 211.578125 353.917969 207.390625 C 351.542969 204.386719 348.4375 202.011719 345.175781 200.035156 C 344.621094 201.351562 344.066406 202.667969 343.511719 203.980469 C 348.0625 204.636719 352.554688 201.625 355.980469 198.921875 C 359.613281 196.066406 362.445312 191.4375 361.617188 186.699219 C 361.417969 185.550781 360.007812 184.902344 358.960938 185.191406 C 357.746094 185.523438 357.253906 186.691406 357.453125 187.84375 " fill-opacity="1" fill-rule="nonzero"/><path fill="#0e0f0e" d="M 351.976562 237.300781 C 361.921875 234.167969 372.050781 231.671875 382.015625 228.617188 C 385.367188 227.59375 388.730469 226.476562 391.882812 224.921875 C 394.265625 223.746094 396.519531 222.21875 398.113281 220.058594 C 399.714844 217.878906 400.257812 215.125 399.914062 212.464844 C 399.769531 211.308594 399.027344 210.308594 397.757812 210.308594 C 396.703125 210.308594 395.449219 211.300781 395.597656 212.464844 C 395.667969 212.996094 395.707031 213.53125 395.703125 214.066406 C 395.703125 214.339844 395.679688 214.609375 395.667969 214.882812 C 395.65625 215.046875 395.542969 215.464844 395.679688 214.832031 C 395.652344 214.960938 395.640625 215.089844 395.609375 215.214844 C 395.5 215.671875 395.359375 216.101562 395.214844 216.546875 C 395.429688 215.882812 395.160156 216.644531 395.066406 216.820312 C 394.945312 217.042969 394.816406 217.257812 394.679688 217.46875 C 394.609375 217.574219 394.527344 217.671875 394.460938 217.777344 C 394.226562 218.164062 394.796875 217.425781 394.480469 217.75 C 394.328125 217.90625 394.191406 218.082031 394.042969 218.242188 C 393.660156 218.648438 393.242188 219.011719 392.8125 219.359375 C 393.300781 218.964844 392.542969 219.546875 392.410156 219.636719 C 392.195312 219.785156 391.976562 219.925781 391.761719 220.0625 C 391.191406 220.414062 390.609375 220.738281 390.015625 221.039062 C 389.417969 221.339844 388.8125 221.621094 388.199219 221.890625 C 387.621094 222.144531 388.601562 221.726562 388.003906 221.972656 C 387.820312 222.050781 387.636719 222.121094 387.453125 222.195312 C 387.070312 222.347656 386.6875 222.496094 386.304688 222.640625 C 384.667969 223.25 383.007812 223.792969 381.34375 224.3125 C 377.207031 225.59375 373.023438 226.71875 368.855469 227.871094 C 362.820312 229.542969 356.800781 231.257812 350.828125 233.140625 C 348.1875 233.972656 349.316406 238.140625 351.976562 237.300781 " fill-opacity="1" fill-rule="nonzero"/><path fill="#0e0f0e" d="M 88.496094 388.507812 C 85.835938 397.222656 88.75 406.851562 94.917969 413.367188 C 101.246094 420.050781 110.390625 423.371094 119.457031 423.785156 C 125.234375 424.050781 131.050781 423.164062 136.609375 421.632812 C 139.285156 420.894531 138.148438 416.730469 135.460938 417.46875 C 126.910156 419.828125 117.730469 420.496094 109.242188 417.511719 C 102.058594 414.984375 95.632812 409.667969 93.074219 402.34375 C 91.636719 398.230469 91.382812 393.84375 92.660156 389.65625 C 93.472656 386.996094 89.304688 385.855469 88.496094 388.507812 " fill-opacity="1" fill-rule="nonzero"/><path fill="#0e0f0e" d="M 109.203125 421.644531 C 110.945312 429.507812 117.332031 435.339844 124.464844 438.53125 C 134.292969 442.921875 145.1875 443.34375 155.621094 441.074219 C 161.527344 439.792969 167.234375 437.652344 172.648438 434.972656 C 173.691406 434.457031 173.980469 432.976562 173.421875 432.019531 C 172.800781 430.957031 171.515625 430.730469 170.46875 431.25 C 161.761719 435.558594 152.082031 438.328125 142.308594 438.148438 C 133.773438 437.988281 124.351562 435.390625 118.199219 429.167969 C 115.738281 426.679688 114.113281 423.863281 113.367188 420.496094 C 112.765625 417.785156 108.601562 418.933594 109.203125 421.644531 " fill-opacity="1" fill-rule="nonzero"/><path fill="#0e0f0e" d="M 150.816406 441.46875 C 155.207031 445.847656 160.320312 449.511719 166.347656 451.226562 C 172.65625 453.023438 179.480469 452.734375 185.914062 451.902344 C 193.457031 450.921875 200.785156 448.933594 207.933594 446.378906 C 214.429688 444.054688 220.808594 441.382812 226.988281 438.316406 C 239.195312 432.253906 250.710938 424.546875 260.488281 415.015625 C 268.847656 406.867188 275.300781 396.636719 279.585938 385.816406 C 284.335938 373.828125 286.175781 360.363281 282.78125 347.773438 C 282.347656 346.171875 281.828125 344.601562 281.234375 343.050781 C 280.820312 341.964844 279.78125 341.214844 278.578125 341.546875 C 277.535156 341.832031 276.652344 343.105469 277.070312 344.199219 C 281.535156 355.851562 280.855469 368.484375 277.035156 380.210938 C 273.546875 390.914062 267.613281 401.035156 259.996094 409.324219 C 251.484375 418.589844 240.828125 426 229.820312 431.984375 C 224.085938 435.101562 218.148438 437.847656 212.074219 440.234375 C 205.511719 442.8125 198.796875 445.070312 191.890625 446.535156 C 185.347656 447.917969 178.382812 448.761719 171.707031 447.9375 C 166.445312 447.285156 161.582031 445.0625 157.492188 441.71875 C 156.226562 440.683594 155.027344 439.570312 153.867188 438.414062 C 151.898438 436.453125 148.84375 439.503906 150.816406 441.46875 " fill-opacity="1" fill-rule="nonzero"/><g clip-path="url(#8632926529)"><path fill="#0e0f0e" d="M 83.835938 379.527344 C 78.894531 379.433594 74.066406 378.011719 69.839844 375.449219 C 67.816406 374.226562 65.984375 372.757812 64.34375 371.058594 C 62.574219 369.226562 60.640625 367.148438 57.875 367.222656 C 52.132812 367.375 51.761719 374.886719 51.792969 379.039062 C 51.828125 384.101562 52.871094 389.320312 55.496094 393.707031 C 58.289062 398.367188 63.136719 401.476562 68.644531 401.546875 C 71.425781 401.578125 71.425781 397.265625 68.644531 397.230469 C 65.007812 397.183594 61.539062 395.171875 59.535156 392.03125 C 57.269531 388.480469 56.289062 384.273438 56.132812 380.097656 C 56.054688 377.953125 56.027344 375.589844 56.539062 373.640625 C 56.714844 372.964844 56.984375 372.242188 57.398438 371.832031 C 57.65625 371.578125 57.878906 371.417969 58.457031 371.613281 C 59.320312 371.90625 60.03125 372.789062 60.636719 373.421875 C 61.46875 374.289062 62.300781 375.144531 63.210938 375.929688 C 64.933594 377.414062 66.808594 378.746094 68.808594 379.839844 C 73.417969 382.359375 78.585938 383.746094 83.835938 383.839844 C 86.617188 383.894531 86.617188 379.578125 83.835938 379.527344 " fill-opacity="1" fill-rule="nonzero"/></g><path fill="#0e0f0e" d="M 57.265625 396.28125 C 54.671875 405.289062 57.769531 414.15625 62.367188 421.933594 C 64.644531 425.78125 67.144531 429.558594 70.140625 432.886719 C 72.859375 435.910156 75.984375 438.539062 79.296875 440.886719 C 83.089844 443.574219 87.15625 445.839844 91.277344 447.96875 C 93.742188 449.242188 95.929688 445.519531 93.457031 444.246094 C 86.675781 440.742188 80.015625 436.835938 74.625 431.359375 C 71.824219 428.515625 69.566406 425.304688 67.4375 421.941406 C 65.214844 418.429688 63.152344 414.753906 61.867188 410.785156 C 60.449219 406.398438 60.144531 401.882812 61.429688 397.425781 C 62.199219 394.753906 58.03125 393.609375 57.265625 396.28125 " fill-opacity="1" fill-rule="nonzero"/><path fill="#0e0f0e" d="M 185.265625 484.167969 C 182.207031 491.855469 180.105469 499.984375 177.949219 507.960938 C 177.734375 508.753906 177.519531 509.542969 177.3125 510.335938 C 176.605469 513.023438 180.769531 514.171875 181.476562 511.480469 C 183.214844 504.859375 185.074219 498.261719 187.171875 491.742188 C 187.867188 489.582031 188.589844 487.425781 189.429688 485.316406 C 189.859375 484.234375 188.957031 482.945312 187.921875 482.660156 C 186.691406 482.324219 185.699219 483.082031 185.265625 484.167969 " fill-opacity="1" fill-rule="nonzero"/><g clip-path="url(#1015368a5c)"><path fill="#0e0f0e" d="M 204.925781 483.566406 C 202.753906 488.644531 200.058594 493.480469 198.011719 498.617188 C 196.09375 503.417969 194.929688 508.355469 196.574219 513.417969 C 197.359375 515.835938 198.558594 518.101562 199.808594 520.300781 C 201.050781 522.492188 202.324219 524.65625 203.71875 526.75 C 206.53125 530.964844 209.71875 534.945312 213.234375 538.59375 C 217.191406 542.707031 221.585938 546.386719 226.292969 549.609375 C 226.65625 548.269531 227.019531 546.929688 227.382812 545.585938 C 223.554688 545.691406 219.742188 546.011719 215.949219 546.535156 C 212.847656 546.964844 208.976562 547.144531 206.460938 549.234375 C 203.863281 551.394531 203.75 555.3125 203.222656 558.390625 C 202.585938 562.113281 201.949219 565.839844 201.308594 569.5625 C 202.367188 569.132812 203.421875 568.703125 204.480469 568.273438 C 197.660156 563.167969 191.089844 557.734375 184.777344 552.015625 C 184.128906 551.433594 182.9375 551.097656 182.160156 551.679688 C 176.261719 556.105469 170.859375 561.113281 166.078125 566.730469 C 167.28125 567.046875 168.484375 567.363281 169.6875 567.683594 C 166.648438 552.875 168.90625 537.160156 175.046875 523.414062 C 176.816406 519.453125 178.902344 515.640625 181.257812 512 C 182.773438 509.660156 179.035156 507.492188 177.53125 509.820312 C 168.820312 523.273438 163.796875 539.296875 164.039062 555.371094 C 164.105469 559.886719 164.613281 564.402344 165.523438 568.828125 C 165.839844 570.359375 168.105469 570.988281 169.132812 569.78125 C 173.660156 564.460938 178.746094 559.601562 184.339844 555.40625 C 183.464844 555.292969 182.59375 555.183594 181.722656 555.070312 C 188.3125 561.035156 195.183594 566.671875 202.300781 572 C 203.355469 572.789062 205.253906 571.992188 205.472656 570.710938 C 206.042969 567.386719 206.613281 564.058594 207.183594 560.734375 C 207.464844 559.082031 207.742188 557.433594 208.03125 555.785156 C 208.226562 554.683594 208.367188 553.257812 209.28125 552.484375 C 210.082031 551.804688 211.320312 551.660156 212.316406 551.472656 C 213.976562 551.15625 215.648438 550.886719 217.324219 550.667969 C 220.660156 550.238281 224.019531 549.992188 227.382812 549.902344 C 229.605469 549.84375 230.210938 547.074219 228.472656 545.882812 C 220.769531 540.605469 213.992188 533.914062 208.621094 526.277344 C 205.921875 522.441406 203.300781 518.3125 201.402344 514.015625 C 200.582031 512.160156 200.03125 510.167969 200.035156 508.132812 C 200.035156 505.785156 200.789062 503.5 201.582031 501.3125 C 203.527344 495.949219 206.414062 490.984375 208.652344 485.742188 C 209.109375 484.671875 208.972656 483.429688 207.878906 482.792969 C 206.96875 482.261719 205.382812 482.488281 204.925781 483.566406 " fill-opacity="1" fill-rule="nonzero"/></g><path fill="#0e0f0e" d="M 300.5625 464.832031 C 310.894531 466.914062 321.644531 467.527344 331.671875 470.976562 C 333.773438 471.703125 335.558594 472.683594 337.777344 473.609375 C 340.082031 474.574219 342.464844 475.328125 344.898438 475.886719 C 351.636719 477.425781 358.566406 477.378906 365.4375 477.566406 C 373.800781 477.800781 382.175781 477.859375 390.476562 476.660156 C 391.296875 476.542969 391.933594 475.613281 392.023438 474.867188 C 392.132812 473.933594 391.714844 473.269531 390.992188 472.714844 C 389.457031 471.535156 388.078125 469.136719 387.269531 467 C 386.296875 464.4375 385.695312 461.734375 385.5625 459.042969 C 385.234375 452.234375 388.695312 445.933594 391.898438 440.160156 C 392.894531 438.359375 391.253906 436.746094 389.460938 436.992188 C 389.226562 437.023438 390.070312 436.914062 389.5625 436.976562 C 389.410156 436.996094 389.257812 437.019531 389.105469 437.035156 C 388.6875 437.085938 388.269531 437.136719 387.851562 437.183594 C 386.859375 437.296875 385.867188 437.398438 384.871094 437.488281 C 382.378906 437.71875 379.875 437.890625 377.371094 437.960938 C 375.03125 438.03125 372.65625 438.042969 370.328125 437.742188 C 370.808594 437.804688 370.179688 437.710938 370.03125 437.6875 C 369.820312 437.648438 369.609375 437.605469 369.394531 437.558594 C 368.996094 437.46875 368.621094 437.328125 368.230469 437.21875 C 368.246094 437.222656 368.601562 437.429688 368.191406 437.183594 C 368.109375 437.136719 367.691406 436.832031 368.011719 437.097656 C 368.4375 437.449219 367.707031 436.703125 368.066406 437.15625 C 368.320312 437.472656 367.953125 436.890625 367.875 436.703125 C 367.035156 434.738281 366.871094 432.53125 366.59375 430.433594 C 366.277344 428.054688 365.816406 425.796875 364.714844 423.644531 C 363.964844 422.179688 361.765625 422.300781 360.984375 423.644531 C 358.117188 428.585938 355.140625 433.480469 351.773438 438.101562 C 349.199219 441.636719 346.210938 445.105469 343.160156 448.449219 C 341.058594 450.753906 338.925781 453.027344 336.804688 455.3125 C 334.917969 457.34375 337.964844 460.402344 339.859375 458.363281 C 346.777344 450.917969 353.59375 443.523438 359.144531 434.96875 C 361.089844 431.976562 362.921875 428.910156 364.714844 425.824219 C 363.46875 425.824219 362.226562 425.824219 360.984375 425.824219 C 362.863281 429.488281 362.199219 433.875 363.644531 437.683594 C 364.140625 438.980469 364.652344 440.09375 365.867188 440.828125 C 366.652344 441.304688 367.585938 441.585938 368.480469 441.769531 C 373.492188 442.804688 378.890625 442.320312 383.945312 441.886719 C 386.171875 441.695312 388.394531 441.457031 390.605469 441.152344 C 389.796875 440.097656 388.980469 439.039062 388.167969 437.984375 C 385.058594 443.589844 382.015625 449.445312 381.324219 455.914062 C 380.8125 460.679688 381.949219 465.761719 383.917969 470.089844 C 385.046875 472.582031 386.636719 474.773438 388.8125 476.441406 C 388.984375 475.128906 389.15625 473.8125 389.328125 472.5 C 382.203125 473.527344 374.949219 473.484375 367.769531 473.3125 C 361.042969 473.152344 354.148438 473.339844 347.519531 472.039062 C 344.980469 471.539062 342.484375 470.84375 340.070312 469.910156 C 338.214844 469.195312 336.144531 468.070312 334.085938 467.277344 C 329.167969 465.382812 323.886719 464.40625 318.710938 463.503906 C 313.054688 462.511719 307.339844 461.808594 301.710938 460.671875 C 300.566406 460.441406 299.375 461 299.050781 462.179688 C 298.761719 463.242188 299.410156 464.601562 300.5625 464.832031 " fill-opacity="1" fill-rule="nonzero"/><path fill="#0e0f0e" d="M 311.550781 449.625 C 320.105469 453.1875 329.046875 455.761719 337.757812 458.917969 C 338.855469 459.316406 340.121094 458.472656 340.414062 457.410156 C 340.742188 456.210938 340.007812 455.15625 338.90625 454.757812 C 330.195312 451.601562 321.253906 449.027344 312.699219 445.464844 C 311.621094 445.015625 310.324219 445.949219 310.042969 446.96875 C 309.699219 448.210938 310.46875 449.175781 311.550781 449.625 " fill-opacity="1" fill-rule="nonzero"/><path fill="#5a3d3c" d="M 161.78125 357.667969 C 157.253906 360.625 152.84375 363.761719 148.566406 367.070312 C 145.34375 369.558594 139.71875 372.835938 141.332031 377.742188 C 142.914062 382.5625 148.292969 383.394531 152.6875 383.535156 C 157.613281 383.6875 162.574219 383.148438 167.359375 381.980469 C 172.847656 380.636719 178.125 378.429688 182.945312 375.488281 C 184.285156 374.667969 183.058594 372.558594 181.714844 373.382812 C 174.117188 378.023438 165.390625 380.710938 156.484375 381.078125 C 154.28125 381.164062 152.027344 381.175781 149.832031 380.910156 C 147.84375 380.664062 145.6875 380.066406 144.402344 378.414062 C 143.171875 376.824219 143.285156 375 144.597656 373.519531 C 146.050781 371.878906 147.980469 370.585938 149.703125 369.25 C 154.003906 365.90625 158.453125 362.753906 163.015625 359.773438 C 164.324219 358.917969 163.101562 356.804688 161.78125 357.667969 " fill-opacity="1" fill-rule="nonzero"/><path fill="#5a3d3c" d="M 166.027344 379.949219 C 161.847656 382.683594 158.207031 386.113281 155.242188 390.132812 C 153.917969 391.929688 152.601562 394.265625 153.328125 396.566406 C 154.046875 398.828125 156.617188 399.882812 158.652344 400.648438 C 168.019531 404.175781 178.890625 400.804688 187.777344 397.371094 C 193.386719 395.203125 198.789062 392.519531 203.902344 389.355469 C 205.234375 388.53125 204.011719 386.421875 202.671875 387.25 C 194.710938 392.175781 185.988281 396.046875 176.890625 398.3125 C 172.585938 399.382812 168.035156 400.050781 163.609375 399.402344 C 161.453125 399.089844 159.304688 398.460938 157.386719 397.421875 C 156.53125 396.960938 155.644531 396.410156 155.566406 395.347656 C 155.488281 394.332031 156.0625 393.304688 156.582031 392.472656 C 159.203125 388.292969 163.160156 384.738281 167.257812 382.054688 C 168.566406 381.195312 167.34375 379.085938 166.027344 379.949219 " fill-opacity="1" fill-rule="nonzero"/><path fill="#5a3d3c" d="M 189.808594 394.167969 C 185.226562 396.894531 181.296875 400.839844 178.765625 405.554688 C 177.679688 407.582031 176.882812 410.019531 177.398438 412.332031 C 177.980469 414.933594 180.242188 416.054688 182.625 416.617188 C 192.761719 419.011719 203.921875 416.535156 212.972656 411.660156 C 218.105469 408.898438 222.734375 405.265625 227.175781 401.515625 C 228.378906 400.503906 226.644531 398.785156 225.453125 399.792969 C 219.035156 405.207031 212.199219 410.1875 204.128906 412.792969 C 199 414.449219 193.601562 415.367188 188.203125 415.003906 C 186.921875 414.914062 185.648438 414.757812 184.390625 414.507812 C 183.230469 414.28125 181.867188 414.082031 180.867188 413.40625 C 179.082031 412.195312 179.644531 409.640625 180.316406 407.957031 C 182.257812 403.074219 186.605469 398.914062 191.039062 396.273438 C 192.386719 395.46875 191.160156 393.359375 189.808594 394.167969 " fill-opacity="1" fill-rule="nonzero"/><path fill="#5a3d3c" d="M 219.535156 404.863281 C 216.960938 406.867188 215.582031 410.378906 214.699219 413.417969 C 214.359375 414.589844 214 415.882812 214 417.113281 C 214 418.929688 215.09375 420.535156 216.515625 421.578125 C 220.332031 424.386719 225.714844 422.566406 229.730469 421.171875 C 234.179688 419.625 238.429688 417.488281 242.300781 414.800781 C 246.398438 411.957031 250.734375 408.484375 252.882812 403.863281 C 253.542969 402.449219 251.4375 401.210938 250.777344 402.636719 C 249.078125 406.28125 245.921875 409.070312 242.769531 411.464844 C 239.523438 413.929688 235.960938 416.007812 232.214844 417.613281 C 230.277344 418.445312 228.277344 419.140625 226.246094 419.710938 C 224.261719 420.273438 222.09375 420.875 220.019531 420.488281 C 218.460938 420.195312 216.636719 419.078125 216.445312 417.347656 C 216.359375 416.550781 216.617188 415.726562 216.820312 414.925781 C 217.558594 411.980469 218.777344 408.519531 221.257812 406.585938 C 222.496094 405.621094 220.757812 403.90625 219.535156 404.863281 " fill-opacity="1" fill-rule="nonzero"/><path fill="#5a3d3c" d="M 192.722656 362.46875 C 192.96875 363.523438 194.003906 364.242188 194.9375 364.652344 C 196.601562 365.386719 198.460938 365.441406 200.242188 365.183594 C 205.601562 364.40625 210.828125 360.945312 213.863281 356.511719 C 214.753906 355.210938 212.640625 353.992188 211.757812 355.28125 C 209.199219 359.011719 204.820312 361.808594 200.390625 362.699219 C 199.058594 362.964844 197.621094 363.011719 196.316406 362.585938 C 195.980469 362.476562 195.46875 362.21875 195.28125 362.058594 C 195.375 362.140625 194.941406 361.734375 195.082031 361.863281 C 195.023438 361.804688 195.105469 361.953125 195.074219 361.820312 C 194.722656 360.292969 192.371094 360.9375 192.722656 362.46875 " fill-opacity="1" fill-rule="nonzero"/><path fill="#5a3d3c" d="M 207.800781 372.886719 C 212.046875 374.691406 216.839844 374.699219 221.011719 372.652344 C 224.660156 370.863281 227.402344 367.601562 228.769531 363.808594 C 229.300781 362.328125 226.945312 361.691406 226.414062 363.160156 C 223.914062 370.109375 215.871094 373.6875 209.03125 370.78125 C 207.605469 370.171875 206.359375 372.273438 207.800781 372.886719 " fill-opacity="1" fill-rule="nonzero"/><path fill="#5a3d3c" d="M 227.777344 379.785156 C 230.359375 383.816406 235.914062 382.503906 239.53125 380.882812 C 243.851562 378.949219 247.78125 375.539062 249.855469 371.238281 C 250.53125 369.828125 248.429688 368.59375 247.746094 370.007812 C 246.023438 373.589844 242.976562 376.375 239.480469 378.207031 C 237.097656 379.453125 231.839844 381.605469 229.882812 378.554688 C 229.039062 377.238281 226.925781 378.457031 227.777344 379.785156 " fill-opacity="1" fill-rule="nonzero"/><path fill="#5a3d3c" d="M 183.074219 526.367188 C 182.199219 532.257812 181.964844 538.199219 182.445312 544.136719 C 182.570312 545.691406 185.007812 545.703125 184.882812 544.136719 C 184.421875 538.429688 184.585938 532.679688 185.425781 527.011719 C 185.65625 525.480469 183.304688 524.816406 183.074219 526.367188 " fill-opacity="1" fill-rule="nonzero"/><path fill="#5a3d3c" d="M 190.605469 525.316406 C 191.710938 531.105469 193.800781 536.667969 196.75 541.765625 C 197.535156 543.125 199.644531 541.898438 198.855469 540.535156 C 196.003906 535.605469 194.027344 530.261719 192.957031 524.667969 C 192.660156 523.128906 190.308594 523.78125 190.605469 525.316406 " fill-opacity="1" fill-rule="nonzero"/><path fill="#5a3d3c" d="M 350.449219 459.933594 C 354.320312 456.878906 357.902344 453.496094 361.167969 449.808594 C 362.203125 448.632812 360.484375 446.902344 359.441406 448.082031 C 356.175781 451.773438 352.59375 455.15625 348.726562 458.207031 C 347.492188 459.179688 349.230469 460.894531 350.449219 459.933594 " fill-opacity="1" fill-rule="nonzero"/><path fill="#5a3d3c" d="M 356.113281 466.289062 C 361.289062 463.773438 366.464844 461.257812 371.640625 458.742188 C 373.050781 458.058594 371.816406 455.953125 370.410156 456.640625 C 365.234375 459.152344 360.058594 461.667969 354.882812 464.183594 C 353.46875 464.871094 354.707031 466.972656 356.113281 466.289062 " fill-opacity="1" fill-rule="nonzero"/><g fill="#000000" fill-opacity="1"><g transform="translate(483.188072, 375.5581)"><g><path d="M 33.984375 0 L 2.8125 -108.9375 L 27.984375 -108.9375 L 46.015625 -33.25 L 46.90625 -33.25 L 66.8125 -108.9375 L 88.34375 -108.9375 L 108.1875 -33.078125 L 109.140625 -33.078125 L 127.171875 -108.9375 L 152.328125 -108.9375 L 121.171875 0 L 98.71875 0 L 77.96875 -71.21875 L 77.125 -71.21875 L 56.4375 0 Z M 33.984375 0 "/></g></g></g><g fill="#000000" fill-opacity="1"><g transform="translate(638.344196, 375.5581)"><g><path d="M 32.34375 1.546875 C 24.539062 1.546875 18.066406 -0.488281 12.921875 -4.5625 C 7.785156 -8.644531 5.21875 -14.726562 5.21875 -22.8125 C 5.21875 -28.914062 6.648438 -33.703125 9.515625 -37.171875 C 12.390625 -40.648438 16.15625 -43.195312 20.8125 -44.8125 C 25.476562 -46.425781 30.507812 -47.484375 35.90625 -47.984375 C 43 -48.691406 48.066406 -49.429688 51.109375 -50.203125 C 54.160156 -50.984375 55.6875 -52.6875 55.6875 -55.3125 L 55.6875 -55.640625 C 55.6875 -59.003906 54.628906 -61.609375 52.515625 -63.453125 C 50.410156 -65.296875 47.425781 -66.21875 43.5625 -66.21875 C 39.476562 -66.21875 36.234375 -65.332031 33.828125 -63.5625 C 31.421875 -61.789062 29.828125 -59.539062 29.046875 -56.8125 L 8.078125 -58.515625 C 9.640625 -65.953125 13.515625 -71.851562 19.703125 -76.21875 C 25.890625 -80.582031 33.878906 -82.765625 43.671875 -82.765625 C 49.734375 -82.765625 55.40625 -81.804688 60.6875 -79.890625 C 65.96875 -77.972656 70.226562 -74.984375 73.46875 -70.921875 C 76.71875 -66.867188 78.34375 -61.597656 78.34375 -55.109375 L 78.34375 0 L 56.859375 0 L 56.859375 -11.328125 L 56.21875 -11.328125 C 54.238281 -7.535156 51.269531 -4.441406 47.3125 -2.046875 C 43.351562 0.347656 38.363281 1.546875 32.34375 1.546875 Z M 38.828125 -14.09375 C 43.796875 -14.09375 47.875 -15.535156 51.0625 -18.421875 C 54.25 -21.316406 55.84375 -24.910156 55.84375 -29.203125 L 55.84375 -37.875 C 54.957031 -37.269531 53.582031 -36.734375 51.71875 -36.265625 C 49.863281 -35.804688 47.878906 -35.410156 45.765625 -35.078125 C 43.660156 -34.742188 41.773438 -34.453125 40.109375 -34.203125 C 36.128906 -33.628906 32.925781 -32.507812 30.5 -30.84375 C 28.070312 -29.175781 26.859375 -26.75 26.859375 -23.5625 C 26.859375 -20.4375 27.984375 -18.078125 30.234375 -16.484375 C 32.484375 -14.890625 35.347656 -14.09375 38.828125 -14.09375 Z M 38.828125 -14.09375 "/></g></g></g><g fill="#000000" fill-opacity="1"><g transform="translate(725.257171, 375.5581)"><g><path d="M 39.140625 1.328125 C 32.941406 1.328125 27.34375 -0.273438 22.34375 -3.484375 C 17.34375 -6.691406 13.367188 -11.425781 10.421875 -17.6875 C 7.484375 -23.945312 6.015625 -31.632812 6.015625 -40.75 C 6.015625 -50.101562 7.53125 -57.890625 10.5625 -64.109375 C 13.59375 -70.335938 17.613281 -75.003906 22.625 -78.109375 C 27.644531 -81.210938 33.132812 -82.765625 39.09375 -82.765625 C 43.664062 -82.765625 47.484375 -81.992188 50.546875 -80.453125 C 53.617188 -78.910156 56.101562 -77.003906 58 -74.734375 C 59.894531 -72.460938 61.34375 -70.207031 62.34375 -67.96875 L 63.03125 -67.96875 L 63.03125 -108.9375 L 85.640625 -108.9375 L 85.640625 0 L 63.296875 0 L 63.296875 -13.078125 L 62.34375 -13.078125 C 61.3125 -10.816406 59.816406 -8.578125 57.859375 -6.359375 C 55.910156 -4.140625 53.40625 -2.300781 50.34375 -0.84375 C 47.28125 0.601562 43.546875 1.328125 39.140625 1.328125 Z M 46.328125 -16.703125 C 51.785156 -16.703125 56.015625 -18.910156 59.015625 -23.328125 C 62.015625 -27.742188 63.515625 -33.582031 63.515625 -40.84375 C 63.515625 -48.15625 62.023438 -53.960938 59.046875 -58.265625 C 56.066406 -62.578125 51.828125 -64.734375 46.328125 -64.734375 C 40.722656 -64.734375 36.457031 -62.523438 33.53125 -58.109375 C 30.601562 -53.691406 29.140625 -47.9375 29.140625 -40.84375 C 29.140625 -33.71875 30.613281 -27.910156 33.5625 -23.421875 C 36.507812 -18.941406 40.765625 -16.703125 46.328125 -16.703125 Z M 46.328125 -16.703125 "/></g></g></g><g fill="#000000" fill-opacity="1"><g transform="translate(820.414624, 375.5581)"><g><path d="M 39.140625 1.328125 C 32.941406 1.328125 27.34375 -0.273438 22.34375 -3.484375 C 17.34375 -6.691406 13.367188 -11.425781 10.421875 -17.6875 C 7.484375 -23.945312 6.015625 -31.632812 6.015625 -40.75 C 6.015625 -50.101562 7.53125 -57.890625 10.5625 -64.109375 C 13.59375 -70.335938 17.613281 -75.003906 22.625 -78.109375 C 27.644531 -81.210938 33.132812 -82.765625 39.09375 -82.765625 C 43.664062 -82.765625 47.484375 -81.992188 50.546875 -80.453125 C 53.617188 -78.910156 56.101562 -77.003906 58 -74.734375 C 59.894531 -72.460938 61.34375 -70.207031 62.34375 -67.96875 L 63.03125 -67.96875 L 63.03125 -108.9375 L 85.640625 -108.9375 L 85.640625 0 L 63.296875 0 L 63.296875 -13.078125 L 62.34375 -13.078125 C 61.3125 -10.816406 59.816406 -8.578125 57.859375 -6.359375 C 55.910156 -4.140625 53.40625 -2.300781 50.34375 -0.84375 C 47.28125 0.601562 43.546875 1.328125 39.140625 1.328125 Z M 46.328125 -16.703125 C 51.785156 -16.703125 56.015625 -18.910156 59.015625 -23.328125 C 62.015625 -27.742188 63.515625 -33.582031 63.515625 -40.84375 C 63.515625 -48.15625 62.023438 -53.960938 59.046875 -58.265625 C 56.066406 -62.578125 51.828125 -64.734375 46.328125 -64.734375 C 40.722656 -64.734375 36.457031 -62.523438 33.53125 -58.109375 C 30.601562 -53.691406 29.140625 -47.9375 29.140625 -40.84375 C 29.140625 -33.71875 30.613281 -27.910156 33.5625 -23.421875 C 36.507812 -18.941406 40.765625 -16.703125 46.328125 -16.703125 Z M 46.328125 -16.703125 "/></g></g></g><g fill="#000000" fill-opacity="1"><g transform="translate(915.572077, 375.5581)"><g><path d="M 31.703125 -108.9375 L 31.703125 0 L 9.046875 0 L 9.046875 -108.9375 Z M 31.703125 -108.9375 "/></g></g></g><g fill="#000000" fill-opacity="1"><g transform="translate(956.315864, 375.5581)"><g><path d="M 46.28125 1.59375 C 37.90625 1.59375 30.6875 -0.113281 24.625 -3.53125 C 18.5625 -6.957031 13.898438 -11.816406 10.640625 -18.109375 C 7.378906 -24.398438 5.75 -31.859375 5.75 -40.484375 C 5.75 -48.878906 7.378906 -56.25 10.640625 -62.59375 C 13.898438 -68.945312 18.5 -73.894531 24.4375 -77.4375 C 30.375 -80.988281 37.351562 -82.765625 45.375 -82.765625 C 52.570312 -82.765625 59.066406 -81.238281 64.859375 -78.1875 C 70.660156 -75.132812 75.257812 -70.53125 78.65625 -64.375 C 82.0625 -58.226562 83.765625 -50.53125 83.765625 -41.28125 L 83.765625 -35.046875 L 28.140625 -35.046875 L 28.140625 -35 C 28.140625 -28.894531 29.804688 -24.085938 33.140625 -20.578125 C 36.472656 -17.066406 40.972656 -15.3125 46.640625 -15.3125 C 50.441406 -15.3125 53.722656 -16.109375 56.484375 -17.703125 C 59.253906 -19.304688 61.207031 -21.664062 62.34375 -24.78125 L 83.296875 -23.40625 C 81.703125 -15.8125 77.660156 -9.742188 71.171875 -5.203125 C 64.679688 -0.671875 56.382812 1.59375 46.28125 1.59375 Z M 28.140625 -49.09375 L 62.4375 -49.09375 C 62.40625 -53.945312 60.847656 -57.953125 57.765625 -61.109375 C 54.679688 -64.265625 50.675781 -65.84375 45.75 -65.84375 C 40.707031 -65.84375 36.570312 -64.210938 33.34375 -60.953125 C 30.125 -57.691406 28.390625 -53.738281 28.140625 -49.09375 Z M 28.140625 -49.09375 "/></g></g></g><g fill="#000000" fill-opacity="1"><g transform="translate(1045.835167, 375.5581)"><g><path d="M 77.015625 -58.40625 L 56.28125 -57.125 C 55.707031 -59.75 54.269531 -62 51.96875 -63.875 C 49.664062 -65.757812 46.546875 -66.703125 42.609375 -66.703125 C 39.097656 -66.703125 36.125 -65.960938 33.6875 -64.484375 C 31.257812 -63.015625 30.066406 -61.054688 30.109375 -58.609375 C 30.066406 -56.660156 30.832031 -55.007812 32.40625 -53.65625 C 33.988281 -52.3125 36.679688 -51.234375 40.484375 -50.421875 L 55.265625 -47.4375 C 70.972656 -44.21875 78.84375 -36.84375 78.875 -25.3125 C 78.875 -19.957031 77.304688 -15.257812 74.171875 -11.21875 C 71.035156 -7.175781 66.734375 -4.03125 61.265625 -1.78125 C 55.804688 0.46875 49.550781 1.59375 42.5 1.59375 C 31.6875 1.59375 23.066406 -0.664062 16.640625 -5.1875 C 10.222656 -9.707031 6.484375 -15.867188 5.421875 -23.671875 L 27.71875 -24.84375 C 28.425781 -21.507812 30.0625 -18.988281 32.625 -17.28125 C 35.195312 -15.582031 38.503906 -14.734375 42.546875 -14.734375 C 46.523438 -14.734375 49.726562 -15.515625 52.15625 -17.078125 C 54.582031 -18.640625 55.8125 -20.625 55.84375 -23.03125 C 55.738281 -27.070312 52.25 -29.785156 45.375 -31.171875 L 31.21875 -33.984375 C 15.40625 -37.140625 7.535156 -44.925781 7.609375 -57.34375 C 7.566406 -65.207031 10.710938 -71.410156 17.046875 -75.953125 C 23.378906 -80.492188 31.773438 -82.765625 42.234375 -82.765625 C 52.546875 -82.765625 60.671875 -80.582031 66.609375 -76.21875 C 72.554688 -71.851562 76.023438 -65.914062 77.015625 -58.40625 Z M 77.015625 -58.40625 "/></g></g></g><g fill="#000000" fill-opacity="1"><g transform="translate(656.106512, 450.849425)"><g><path d="M 12.796875 0 L 3.609375 0 L 3.609375 -29.765625 L 13.203125 -29.765625 C 16.085938 -29.765625 18.554688 -29.171875 20.609375 -27.984375 C 22.671875 -26.804688 24.25 -25.109375 25.34375 -22.890625 C 26.4375 -20.671875 26.984375 -18.019531 26.984375 -14.9375 C 26.984375 -11.84375 26.429688 -9.175781 25.328125 -6.9375 C 24.222656 -4.707031 22.613281 -2.992188 20.5 -1.796875 C 18.382812 -0.597656 15.816406 0 12.796875 0 Z M 7.203125 -3.203125 L 12.5625 -3.203125 C 16.25 -3.203125 18.992188 -4.25 20.796875 -6.34375 C 22.597656 -8.445312 23.5 -11.3125 23.5 -14.9375 C 23.5 -18.550781 22.613281 -21.394531 20.84375 -23.46875 C 19.082031 -25.539062 16.457031 -26.578125 12.96875 -26.578125 L 7.203125 -26.578125 Z M 7.203125 -3.203125 "/></g></g></g><g fill="#000000" fill-opacity="1"><g transform="translate(685.527192, 450.849425)"><g><path d="M 9.71875 0.515625 C 8.300781 0.515625 7.015625 0.25 5.859375 -0.28125 C 4.703125 -0.820312 3.785156 -1.601562 3.109375 -2.625 C 2.429688 -3.644531 2.09375 -4.882812 2.09375 -6.34375 C 2.09375 -7.613281 2.34375 -8.648438 2.84375 -9.453125 C 3.351562 -10.253906 4.03125 -10.878906 4.875 -11.328125 C 5.71875 -11.785156 6.648438 -12.128906 7.671875 -12.359375 C 8.691406 -12.585938 9.71875 -12.769531 10.75 -12.90625 C 12.113281 -13.082031 13.21875 -13.21875 14.0625 -13.3125 C 14.914062 -13.40625 15.535156 -13.5625 15.921875 -13.78125 C 16.316406 -14 16.515625 -14.382812 16.515625 -14.9375 L 16.515625 -15.0625 C 16.515625 -16.5 16.125 -17.613281 15.34375 -18.40625 C 14.5625 -19.195312 13.378906 -19.59375 11.796875 -19.59375 C 10.160156 -19.59375 8.878906 -19.234375 7.953125 -18.515625 C 7.023438 -17.796875 6.367188 -17.03125 5.984375 -16.21875 L 2.734375 -17.390625 C 3.316406 -18.742188 4.09375 -19.800781 5.0625 -20.5625 C 6.039062 -21.320312 7.109375 -21.851562 8.265625 -22.15625 C 9.421875 -22.46875 10.5625 -22.625 11.6875 -22.625 C 12.40625 -22.625 13.226562 -22.535156 14.15625 -22.359375 C 15.09375 -22.191406 16 -21.847656 16.875 -21.328125 C 17.757812 -20.804688 18.492188 -20.015625 19.078125 -18.953125 C 19.660156 -17.898438 19.953125 -16.488281 19.953125 -14.71875 L 19.953125 0 L 16.515625 0 L 16.515625 -3.03125 L 16.34375 -3.03125 C 16.101562 -2.539062 15.710938 -2.019531 15.171875 -1.46875 C 14.628906 -0.914062 13.90625 -0.445312 13 -0.0625 C 12.101562 0.320312 11.007812 0.515625 9.71875 0.515625 Z M 10.234375 -2.5625 C 11.585938 -2.5625 12.734375 -2.828125 13.671875 -3.359375 C 14.609375 -3.890625 15.316406 -4.578125 15.796875 -5.421875 C 16.273438 -6.265625 16.515625 -7.148438 16.515625 -8.078125 L 16.515625 -11.21875 C 16.367188 -11.050781 16.050781 -10.894531 15.5625 -10.75 C 15.070312 -10.613281 14.507812 -10.492188 13.875 -10.390625 C 13.238281 -10.285156 12.625 -10.195312 12.03125 -10.125 C 11.4375 -10.050781 10.953125 -9.988281 10.578125 -9.9375 C 9.691406 -9.820312 8.863281 -9.632812 8.09375 -9.375 C 7.320312 -9.125 6.703125 -8.742188 6.234375 -8.234375 C 5.765625 -7.722656 5.53125 -7.03125 5.53125 -6.15625 C 5.53125 -4.96875 5.972656 -4.070312 6.859375 -3.46875 C 7.742188 -2.863281 8.867188 -2.5625 10.234375 -2.5625 Z M 10.234375 -2.5625 "/></g></g></g><g fill="#000000" fill-opacity="1"><g transform="translate(708.610215, 450.849425)"><g><path d="M 3.140625 0 L 3.140625 -22.328125 L 6.453125 -22.328125 L 6.453125 -18.953125 L 6.6875 -18.953125 C 7.082031 -20.054688 7.8125 -20.953125 8.875 -21.640625 C 9.945312 -22.328125 11.15625 -22.671875 12.5 -22.671875 C 13.125 -22.671875 13.664062 -22.597656 14.125 -22.453125 C 14.59375 -22.316406 15.003906 -22.117188 15.359375 -21.859375 L 14.1875 -18.953125 C 13.945312 -19.078125 13.660156 -19.175781 13.328125 -19.25 C 13.003906 -19.320312 12.632812 -19.359375 12.21875 -19.359375 C 10.582031 -19.359375 9.234375 -18.863281 8.171875 -17.875 C 7.109375 -16.882812 6.578125 -15.632812 6.578125 -14.125 L 6.578125 0 Z M 3.140625 0 "/></g></g></g><g fill="#000000" fill-opacity="1"><g transform="translate(724.308996, 450.849425)"><g><path d="M 12.5 0.46875 C 10.351562 0.46875 8.5 -0.0078125 6.9375 -0.96875 C 5.382812 -1.925781 4.1875 -3.265625 3.34375 -4.984375 C 2.507812 -6.703125 2.09375 -8.703125 2.09375 -10.984375 C 2.09375 -13.273438 2.507812 -15.296875 3.34375 -17.046875 C 4.1875 -18.796875 5.359375 -20.160156 6.859375 -21.140625 C 8.367188 -22.128906 10.132812 -22.625 12.15625 -22.625 C 13.3125 -22.625 14.457031 -22.425781 15.59375 -22.03125 C 16.726562 -21.644531 17.757812 -21.019531 18.6875 -20.15625 C 19.625 -19.289062 20.367188 -18.144531 20.921875 -16.71875 C 21.472656 -15.289062 21.75 -13.535156 21.75 -11.453125 L 21.75 -10 L 5.53125 -10 C 5.613281 -7.613281 6.289062 -5.785156 7.5625 -4.515625 C 8.84375 -3.242188 10.488281 -2.609375 12.5 -2.609375 C 13.84375 -2.609375 15 -2.898438 15.96875 -3.484375 C 16.945312 -4.066406 17.648438 -4.941406 18.078125 -6.109375 L 21.40625 -5.171875 C 20.875 -3.484375 19.820312 -2.117188 18.25 -1.078125 C 16.6875 -0.046875 14.769531 0.46875 12.5 0.46875 Z M 5.53125 -12.96875 L 18.265625 -12.96875 C 18.265625 -14.851562 17.707031 -16.414062 16.59375 -17.65625 C 15.488281 -18.90625 14.007812 -19.53125 12.15625 -19.53125 C 10.84375 -19.53125 9.707031 -19.222656 8.75 -18.609375 C 7.789062 -18.003906 7.035156 -17.203125 6.484375 -16.203125 C 5.929688 -15.203125 5.613281 -14.125 5.53125 -12.96875 Z M 5.53125 -12.96875 "/></g></g></g><g fill="#000000" fill-opacity="1"><g transform="translate(748.147887, 450.849425)"><g/></g></g><g fill="#000000" fill-opacity="1"><g transform="translate(759.660327, 450.849425)"><g><path d="M 12.84375 -22.328125 L 12.84375 -19.421875 L 8.078125 -19.421875 L 8.078125 -6.390625 C 8.078125 -5.421875 8.21875 -4.695312 8.5 -4.21875 C 8.789062 -3.738281 9.160156 -3.421875 9.609375 -3.265625 C 10.066406 -3.109375 10.546875 -3.03125 11.046875 -3.03125 C 11.421875 -3.03125 11.726562 -3.050781 11.96875 -3.09375 C 12.21875 -3.132812 12.414062 -3.171875 12.5625 -3.203125 L 13.265625 -0.109375 C 13.023438 -0.0234375 12.695312 0.0625 12.28125 0.15625 C 11.863281 0.25 11.335938 0.296875 10.703125 0.296875 C 9.734375 0.296875 8.785156 0.0859375 7.859375 -0.328125 C 6.929688 -0.742188 6.164062 -1.378906 5.5625 -2.234375 C 4.957031 -3.085938 4.65625 -4.164062 4.65625 -5.46875 L 4.65625 -19.421875 L 1.28125 -19.421875 L 1.28125 -22.328125 L 4.65625 -22.328125 L 4.65625 -27.671875 L 8.078125 -27.671875 L 8.078125 -22.328125 Z M 12.84375 -22.328125 "/></g></g></g><g fill="#000000" fill-opacity="1"><g transform="translate(774.545097, 450.849425)"><g><path d="M 12.21875 0.46875 C 10.195312 0.46875 8.425781 -0.0078125 6.90625 -0.96875 C 5.394531 -1.925781 4.210938 -3.269531 3.359375 -5 C 2.515625 -6.726562 2.09375 -8.742188 2.09375 -11.046875 C 2.09375 -13.367188 2.515625 -15.394531 3.359375 -17.125 C 4.210938 -18.863281 5.394531 -20.210938 6.90625 -21.171875 C 8.425781 -22.140625 10.195312 -22.625 12.21875 -22.625 C 14.226562 -22.625 15.988281 -22.140625 17.5 -21.171875 C 19.019531 -20.210938 20.203125 -18.863281 21.046875 -17.125 C 21.898438 -15.394531 22.328125 -13.367188 22.328125 -11.046875 C 22.328125 -8.742188 21.898438 -6.726562 21.046875 -5 C 20.203125 -3.269531 19.019531 -1.925781 17.5 -0.96875 C 15.988281 -0.0078125 14.226562 0.46875 12.21875 0.46875 Z M 12.21875 -2.609375 C 13.75 -2.609375 15.003906 -3 15.984375 -3.78125 C 16.972656 -4.570312 17.707031 -5.609375 18.1875 -6.890625 C 18.664062 -8.171875 18.90625 -9.554688 18.90625 -11.046875 C 18.90625 -12.535156 18.664062 -13.925781 18.1875 -15.21875 C 17.707031 -16.507812 16.972656 -17.550781 15.984375 -18.34375 C 15.003906 -19.132812 13.75 -19.53125 12.21875 -19.53125 C 10.6875 -19.53125 9.425781 -19.132812 8.4375 -18.34375 C 7.445312 -17.550781 6.710938 -16.507812 6.234375 -15.21875 C 5.765625 -13.925781 5.53125 -12.535156 5.53125 -11.046875 C 5.53125 -9.554688 5.765625 -8.171875 6.234375 -6.890625 C 6.710938 -5.609375 7.445312 -4.570312 8.4375 -3.78125 C 9.425781 -3 10.6875 -2.609375 12.21875 -2.609375 Z M 12.21875 -2.609375 "/></g></g></g><g fill="#000000" fill-opacity="1"><g transform="translate(798.965424, 450.849425)"><g/></g></g><g fill="#000000" fill-opacity="1"><g transform="translate(810.477864, 450.849425)"><g><path d="M 8.203125 0 L 1.390625 -22.328125 L 5 -22.328125 L 9.828125 -5.234375 L 10.0625 -5.234375 L 14.828125 -22.328125 L 18.484375 -22.328125 L 23.203125 -5.296875 L 23.4375 -5.296875 L 28.265625 -22.328125 L 31.859375 -22.328125 L 25.0625 0 L 21.6875 0 L 16.8125 -17.15625 L 16.453125 -17.15625 L 11.578125 0 Z M 8.203125 0 "/></g></g></g><g fill="#000000" fill-opacity="1"><g transform="translate(843.736023, 450.849425)"><g><path d="M 12.21875 0.46875 C 10.195312 0.46875 8.425781 -0.0078125 6.90625 -0.96875 C 5.394531 -1.925781 4.210938 -3.269531 3.359375 -5 C 2.515625 -6.726562 2.09375 -8.742188 2.09375 -11.046875 C 2.09375 -13.367188 2.515625 -15.394531 3.359375 -17.125 C 4.210938 -18.863281 5.394531 -20.210938 6.90625 -21.171875 C 8.425781 -22.140625 10.195312 -22.625 12.21875 -22.625 C 14.226562 -22.625 15.988281 -22.140625 17.5 -21.171875 C 19.019531 -20.210938 20.203125 -18.863281 21.046875 -17.125 C 21.898438 -15.394531 22.328125 -13.367188 22.328125 -11.046875 C 22.328125 -8.742188 21.898438 -6.726562 21.046875 -5 C 20.203125 -3.269531 19.019531 -1.925781 17.5 -0.96875 C 15.988281 -0.0078125 14.226562 0.46875 12.21875 0.46875 Z M 12.21875 -2.609375 C 13.75 -2.609375 15.003906 -3 15.984375 -3.78125 C 16.972656 -4.570312 17.707031 -5.609375 18.1875 -6.890625 C 18.664062 -8.171875 18.90625 -9.554688 18.90625 -11.046875 C 18.90625 -12.535156 18.664062 -13.925781 18.1875 -15.21875 C 17.707031 -16.507812 16.972656 -17.550781 15.984375 -18.34375 C 15.003906 -19.132812 13.75 -19.53125 12.21875 -19.53125 C 10.6875 -19.53125 9.425781 -19.132812 8.4375 -18.34375 C 7.445312 -17.550781 6.710938 -16.507812 6.234375 -15.21875 C 5.765625 -13.925781 5.53125 -12.535156 5.53125 -11.046875 C 5.53125 -9.554688 5.765625 -8.171875 6.234375 -6.890625 C 6.710938 -5.609375 7.445312 -4.570312 8.4375 -3.78125 C 9.425781 -3 10.6875 -2.609375 12.21875 -2.609375 Z M 12.21875 -2.609375 "/></g></g></g><g fill="#000000" fill-opacity="1"><g transform="translate(868.15635, 450.849425)"><g><path d="M 6.578125 -13.4375 L 6.578125 0 L 3.140625 0 L 3.140625 -22.328125 L 6.453125 -22.328125 L 6.453125 -18.84375 L 6.75 -18.84375 C 7.269531 -19.976562 8.0625 -20.890625 9.125 -21.578125 C 10.195312 -22.273438 11.578125 -22.625 13.265625 -22.625 C 15.515625 -22.625 17.332031 -21.929688 18.71875 -20.546875 C 20.113281 -19.160156 20.8125 -17.039062 20.8125 -14.1875 L 20.8125 0 L 17.390625 0 L 17.390625 -13.953125 C 17.390625 -15.710938 16.929688 -17.082031 16.015625 -18.0625 C 15.109375 -19.039062 13.859375 -19.53125 12.265625 -19.53125 C 10.628906 -19.53125 9.269531 -19 8.1875 -17.9375 C 7.113281 -16.882812 6.578125 -15.382812 6.578125 -13.4375 Z M 6.578125 -13.4375 "/></g></g></g><g fill="#000000" fill-opacity="1"><g transform="translate(892.111528, 450.849425)"><g><path d="M 11.578125 0.46875 C 9.710938 0.46875 8.066406 -0.00390625 6.640625 -0.953125 C 5.210938 -1.898438 4.097656 -3.238281 3.296875 -4.96875 C 2.492188 -6.695312 2.09375 -8.742188 2.09375 -11.109375 C 2.09375 -13.453125 2.492188 -15.484375 3.296875 -17.203125 C 4.097656 -18.929688 5.21875 -20.265625 6.65625 -21.203125 C 8.09375 -22.148438 9.75 -22.625 11.625 -22.625 C 13.082031 -22.625 14.234375 -22.382812 15.078125 -21.90625 C 15.929688 -21.425781 16.582031 -20.878906 17.03125 -20.265625 C 17.476562 -19.660156 17.828125 -19.164062 18.078125 -18.78125 L 18.375 -18.78125 L 18.375 -29.765625 L 21.8125 -29.765625 L 21.8125 0 L 18.484375 0 L 18.484375 -3.4375 L 18.078125 -3.4375 C 17.828125 -3.019531 17.46875 -2.503906 17 -1.890625 C 16.539062 -1.273438 15.878906 -0.726562 15.015625 -0.25 C 14.148438 0.226562 13.003906 0.46875 11.578125 0.46875 Z M 12.03125 -2.609375 C 14.101562 -2.609375 15.6875 -3.398438 16.78125 -4.984375 C 17.882812 -6.578125 18.4375 -8.640625 18.4375 -11.171875 C 18.4375 -13.671875 17.890625 -15.6875 16.796875 -17.21875 C 15.710938 -18.757812 14.125 -19.53125 12.03125 -19.53125 C 10.582031 -19.53125 9.375 -19.160156 8.40625 -18.421875 C 7.445312 -17.679688 6.726562 -16.675781 6.25 -15.40625 C 5.769531 -14.144531 5.53125 -12.734375 5.53125 -11.171875 C 5.53125 -9.578125 5.773438 -8.132812 6.265625 -6.84375 C 6.753906 -5.550781 7.476562 -4.519531 8.4375 -3.75 C 9.40625 -2.988281 10.601562 -2.609375 12.03125 -2.609375 Z M 12.03125 -2.609375 "/></g></g></g><g fill="#000000" fill-opacity="1"><g transform="translate(917.520297, 450.849425)"><g><path d="M 12.5 0.46875 C 10.351562 0.46875 8.5 -0.0078125 6.9375 -0.96875 C 5.382812 -1.925781 4.1875 -3.265625 3.34375 -4.984375 C 2.507812 -6.703125 2.09375 -8.703125 2.09375 -10.984375 C 2.09375 -13.273438 2.507812 -15.296875 3.34375 -17.046875 C 4.1875 -18.796875 5.359375 -20.160156 6.859375 -21.140625 C 8.367188 -22.128906 10.132812 -22.625 12.15625 -22.625 C 13.3125 -22.625 14.457031 -22.425781 15.59375 -22.03125 C 16.726562 -21.644531 17.757812 -21.019531 18.6875 -20.15625 C 19.625 -19.289062 20.367188 -18.144531 20.921875 -16.71875 C 21.472656 -15.289062 21.75 -13.535156 21.75 -11.453125 L 21.75 -10 L 5.53125 -10 C 5.613281 -7.613281 6.289062 -5.785156 7.5625 -4.515625 C 8.84375 -3.242188 10.488281 -2.609375 12.5 -2.609375 C 13.84375 -2.609375 15 -2.898438 15.96875 -3.484375 C 16.945312 -4.066406 17.648438 -4.941406 18.078125 -6.109375 L 21.40625 -5.171875 C 20.875 -3.484375 19.820312 -2.117188 18.25 -1.078125 C 16.6875 -0.046875 14.769531 0.46875 12.5 0.46875 Z M 5.53125 -12.96875 L 18.265625 -12.96875 C 18.265625 -14.851562 17.707031 -16.414062 16.59375 -17.65625 C 15.488281 -18.90625 14.007812 -19.53125 12.15625 -19.53125 C 10.84375 -19.53125 9.707031 -19.222656 8.75 -18.609375 C 7.789062 -18.003906 7.035156 -17.203125 6.484375 -16.203125 C 5.929688 -15.203125 5.613281 -14.125 5.53125 -12.96875 Z M 5.53125 -12.96875 "/></g></g></g><g fill="#000000" fill-opacity="1"><g transform="translate(941.359187, 450.849425)"><g><path d="M 3.140625 0 L 3.140625 -22.328125 L 6.453125 -22.328125 L 6.453125 -18.953125 L 6.6875 -18.953125 C 7.082031 -20.054688 7.8125 -20.953125 8.875 -21.640625 C 9.945312 -22.328125 11.15625 -22.671875 12.5 -22.671875 C 13.125 -22.671875 13.664062 -22.597656 14.125 -22.453125 C 14.59375 -22.316406 15.003906 -22.117188 15.359375 -21.859375 L 14.1875 -18.953125 C 13.945312 -19.078125 13.660156 -19.175781 13.328125 -19.25 C 13.003906 -19.320312 12.632812 -19.359375 12.21875 -19.359375 C 10.582031 -19.359375 9.234375 -18.863281 8.171875 -17.875 C 7.109375 -16.882812 6.578125 -15.632812 6.578125 -14.125 L 6.578125 0 Z M 3.140625 0 "/></g></g></g></svg>